{
  "accessors": [
    {
      "bufferView": 2,
      "componentType": 5126,
      "count": 518,
      "max": [
        1.0157907009124756,
        0.7396108508110046,
        0.10813270509243011
      ],
      "min": [
        -1.0157907009124756,
        -0.6771531701087952,
        0.0
      ],
      "type": "VEC3"
    },
    {
      "bufferView": 2,
      "byteOffset": 6216,
      "componentType": 5126,
      "count": 518,
      "max": [
        1.0,
        1.0,
        1.0
      ],
      "min": [
        -1.0,
        -1.0,
        -1.0
      ],
      "type": "VEC3"
    },
    {
      "bufferView": 1,
      "componentType": 5126,
      "count": 518,
      "max": [
        0.9917007088661194,
        0.9999994039535522
      ],
      "min": [
        0.20476770401000977,
        0.0
      ],
      "type": "VEC2"
    },
    {
      "bufferView": 1,
      "byteOffset": 4144,
      "componentType": 5126,
      "count": 518,
      "max": [
        1.0,
        1.0
      ],
      "min": [
        0.0,
        0.0
      ],
      "type": "VEC2"
    },
    {
      "bufferView": 0,
      "componentType": 5125,
      "count": 936,
      "type": "SCALAR"
    },
    {
      "bufferView": 2,
      "byteOffset": 12432,
      "componentType": 5126,
      "count": 2211,
      "max": [
        0.8984889388084412,
        0.5036113858222961,
        0.09279701113700867
      ],
      "min": [
        -0.901630699634552,
        -0.2262670397758484,
        0.07510806620121002
      ],
      "type": "VEC3"
    },
    {
      "bufferView": 2,
      "byteOffset": 38964,
      "componentType": 5126,
      "count": 2211,
      "max": [
        0.9998770356178284,
        1.0,
        1.0
      ],
      "min": [
        -0.9969267249107361,
        -1.0,
        -1.0
      ],
      "type": "VEC3"
    },
    {
      "bufferView": 1,
      "byteOffset": 8288,
      "componentType": 5126,
      "count": 2211,
      "max": [
        0.906631350517273,
        0.6442548632621765
      ],
      "min": [
        0.09036216139793396,
        0.3733251988887787
      ],
      "type": "VEC2"
    },
    {
      "bufferView": 1,
      "byteOffset": 25976,
      "componentType": 5126,
      "count": 2211,
      "max": [
        0.0,
        0.0
      ],
      "min": [
        0.0,
        0.0
      ],
      "type": "VEC2"
    },
    {
      "bufferView": 0,
      "byteOffset": 3744,
      "componentType": 5125,
      "count": 4140,
      "type": "SCALAR"
    },
    {
      "bufferView": 2,
      "byteOffset": 65496,
      "componentType": 5126,
      "count": 1034,
      "max": [
        1.0166457891464233,
        0.729310929775238,
        0.1079062893986702
      ],
      "min": [
        -1.0166457891464233,
        -0.6764760613441467,
        0.04798436537384987
      ],
      "type": "VEC3"
    },
    {
      "bufferView": 2,
      "byteOffset": 77904,
      "componentType": 5126,
      "count": 1034,
      "max": [
        1.0,
        1.0,
        1.0
      ],
      "min": [
        -1.0,
        -1.0,
        -1.0
      ],
      "type": "VEC3"
    },
    {
      "bufferView": 1,
      "byteOffset": 43664,
      "componentType": 5126,
      "count": 1034,
      "max": [
        0.9956128597259521,
        1.0
      ],
      "min": [
        0.17800912261009216,
        2.9802322387695313e-08
      ],
      "type": "VEC2"
    },
    {
      "bufferView": 1,
      "byteOffset": 51936,
      "componentType": 5126,
      "count": 1034,
      "max": [
        0.0,
        0.0
      ],
      "min": [
        0.0,
        0.0
      ],
      "type": "VEC2"
    },
    {
      "bufferView": 0,
      "byteOffset": 20304,
      "componentType": 5125,
      "count": 1890,
      "type": "SCALAR"
    }
  ],
  "asset": {
    "extras": {
      "author": "pricrich (https://sketchfab.com/pricrich681)",
      "license": "CC-BY-NC-4.0 (http://creativecommons.org/licenses/by-nc/4.0/)",
      "source": "https://sketchfab.com/3d-models/framework-16-laptop-4c218eaa9b5d40eca116d837b3479dc3",
      "title": "Framework 16 Laptop"
    },
    "generator": "Sketchfab-16.14.0",
    "version": "2.0"
  },
  "bufferViews": [
    {
      "buffer": 0,
      "byteLength": 27864,
      "name": "floatBufferViews",
      "target": 34963
    },
    {
      "buffer": 0,
      "byteLength": 60208,
      "byteOffset": 27864,
      "byteStride": 8,
      "name": "floatBufferViews",
      "target": 34962
    },
    {
      "buffer": 0,
      "byteLength": 90312,
      "byteOffset": 88072,
      "byteStride": 12,
      "name": "floatBufferViews",
      "target": 34962
    }
  ],
  "buffers": [
    {
      "byteLength": 178384,
      "uri": "scene.bin"
    }
  ],
  "images": [
    {
      "uri": "textures/Weapon_plastic_baseColor.png"
    },
    {
      "uri": "textures/KEYBOARD_baseColor.png"
    }
  ],
  "materials": [
    {
      "doubleSided": true,
      "name": "Weapon_plastic",
      "pbrMetallicRoughness": {
        "baseColorTexture": {
          "index": 0
        },
        "metallicFactor": 0.0,
        "roughnessFactor": 0.8040408205773457
      }
    },
    {
      "doubleSided": true,
      "name": "KEYBOARD",
      "pbrMetallicRoughness": {
        "baseColorTexture": {
          "index": 1
        },
        "metallicFactor": 0.0,
        "roughnessFactor": 0.8211145618000169
      }
    }
  ],
  "meshes": [
    {
      "name": "Chassi_Weapon plastic_0",
      "primitives": [
        {
          "attributes": {
            "NORMAL": 1,
            "POSITION": 0,
            "TEXCOORD_0": 2,
            "TEXCOORD_1": 3
          },
          "indices": 4,
          "material": 0,
          "mode": 4
        }
      ]
    },
    {
      "name": "Chassi_KEYBOARD_0",
      "primitives": [
        {
          "attributes": {
            "NORMAL": 6,
            "POSITION": 5,
            "TEXCOORD_0": 7,
            "TEXCOORD_1": 8
          },
          "indices": 9,
          "material": 1,
          "mode": 4
        }
      ]
    },
    {
      "name": "Screen_Weapon plastic_0",
      "primitives": [
        {
          "attributes": {
            "NORMAL": 11,
            "POSITION": 10,
            "TEXCOORD_0": 12,
            "TEXCOORD_1": 13
          },
          "indices": 14,
          "material": 0,
          "mode": 4
        }
      ]
    }
  ],
  "nodes": [
    {
      "children": [
        1
      ],
      "matrix": [
        1.0,
        0.0,
        0.0,
        0.0,
        0.0,
        2.220446049250313e-16,
        -1.0,
        0.0,
        0.0,
        1.0,
        2.220446049250313e-16,
        0.0,
        0.0,
        0.0,
        0.0,
        1.0
      ],
      "name": "Sketchfab_model"
    },
    {
      "children": [
        2
      ],
      "matrix": [
        0.009999999776482582,
        0.0,
        0.0,
        0.0,
        0.0,
        0.0,
        0.009999999776482582,
        0.0,
        0.0,
        -0.009999999776482582,
        0.0,
        0.0,
        0.0,
        0.0,
        0.0,
        1.0
      ],
      "name": "518e45eea9ca4970b255be999b4df31c.fbx"
    },
    {
      "children": [
        3
      ],
      "name": "RootNode"
    },
    {
      "children": [
        4,
        5,
        6
      ],
      "matrix": [
        100.0,
        0.0,
        0.0,
        0.0,
        0.0,
        -1.629206793918314e-05,
        -99.99999999999868,
        0.0,
        0.0,
        99.99999999999868,
        -1.629206793918314e-05,
        0.0,
        0.0,
        0.0,
        0.0,
        1.0
      ],
      "name": "Chassi"
    },
    {
      "mesh": 0,
      "name": "Chassi_Weapon plastic_0"
    },
    {
      "mesh": 1,
      "name": "Chassi_KEYBOARD_0"
    },
    {
      "children": [
        7
      ],
      "matrix": [
        1.2351084953045132e-08,
        -1.8162702494847348e-17,
        -0.16359508037567091,
        0.0,
        -0.16359508037567078,
        -7.150968370704312e-09,
        -1.2351084943963781e-08,
        0.0,
        -7.150968370704312e-09,
        0.16359508037567125,
        -5.812064798351151e-16,
        0.0,
        0.00038273376412689686,
        0.7293509244918823,
        0.10672660917043686,
        1.0
      ],
      "name": "Screen.001"
    },
    {
      "children": [
        8
      ],
      "matrix": [
        -9.958776212666643e-07,
        -6.112653255462566,
        -2.842170937746444e-14,
        0.0,
        6.112653255462566,
        -9.958776212666643e-07,
        1.694065895586062e-21,
        0.0,
        -6.324550095832112e-21,
        -2.842170937746379e-14,
        6.1126532554626465,
        0.0,
        -4.4582695960998535,
        0.0023397139739245176,
        -0.6523833274841309,
        1.0
      ],
      "name": "Screen"
    },
    {
      "mesh": 2,
      "name": "Screen_Weapon plastic_0"
    }
  ],
  "samplers": [
    {
      "magFilter": 9729,
      "minFilter": 9987,
      "wrapS": 10497,
      "wrapT": 10497
    }
  ],
  "scene": 0,
  "scenes": [
    {
      "name": "Sketchfab_Scene",
      "nodes": [
        0
      ]
    }
  ],
  "textures": [
    {
      "sampler": 0,
      "source": 0
    },
    {
      "sampler": 0,
      "source": 1
    }
  ]
}
